# xmcd CD database file
#
# Track frame offsets:
#	150
#	53575
#	82606
#	103233
#	112179
#	163145
#	219674
#	246951
#	276347
#
# Disc length: 4069 seconds
#
# Revision: 0
# Processed by: cddbd v1.5.1PL0 Copyright (c) Steve Scherf et al.
# Submitted via: CDex 1.51
#
DISCID=7e0fe309
DTITLE=Wayne Shorter Quartet - Beyond The Sound Barrier
DYEAR=2005
DGENRE=Jazz
TTITLE0=Smilin' Through
TTITLE1=As Far As The Eye Can See
TTITLE2=On Wings Of Song
TTITLE3=Tinker Bell
TTITLE4=Joy Ryder
TTITLE5=Over Shadow Hill Way
TTITLE6=Adventures Aboard The Golden Mean
TTITLE7=Beyond The Sound Barrier
TTITLE8=Zero Gravity
EXTD=YEAR: 2005
EXTT0=
EXTT1=
EXTT2=
EXTT3=
EXTT4=
EXTT5=
EXTT6=
EXTT7=
EXTT8=
PLAYORDER=
